<svg width="695" height="694" xmlns="http://www.w3.org/2000/svg" xmlns:xlink="http://www.w3.org/1999/xlink" xml:space="preserve" overflow="hidden"><defs><clipPath id="clip0"><rect x="1460" y="1554" width="695" height="694"/></clipPath></defs><g clip-path="url(#clip0)" transform="translate(-1460 -1554)"><path d="M1474 1901C1474 1717.09 1623.31 1568 1807.5 1568 1991.69 1568 2141 1717.09 2141 1901 2141 2084.91 1991.69 2234 1807.5 2234 1623.31 2234 1474 2084.91 1474 1901Z" stroke="#FFFFFF" stroke-width="27.5" stroke-miterlimit="8" fill="none" fill-rule="evenodd"/><path d="M1807.85 1654.05 2020.61 1866.81 1878.77 1866.81 1807.85 1795.89 1736.93 1866.81 1595.09 1866.81Z" fill="#FFFFFF" fill-rule="evenodd"/><path d="M0 0 300.884 0 200.59 100.294 100.294 100.294 100.294 200.59 0 300.884Z" fill="#FFFFFF" fill-rule="evenodd" transform="matrix(0.707107 -0.707107 -0.707107 -0.707107 1811.15 2166.12)"/></g></svg>